[Header]
FileType HTR
DataType HTRS
FileVersion 1
NumSegments 22
NumFrames 5
DataFrameRate 24
EulerRotationOrder ZYX
CalibrationUnits mm
RotationUnits Degrees
GlobalAxisofGravity Y
BoneLengthAxis Y
ScaleFactor 1.0
[SegmentNames&Hierarchy]
reference	GLOBAL
Hips	reference
Spine	Hips
Spine1	Spine
Neck	Spine1
Head	Neck
LeftShoulder	Spine1
LeftArm	LeftShoulder
LeftForeArm	LeftArm
LeftHand	LeftForeArm
RightShoulder	Spine1
RightArm	RightShoulder
RightForeArm	RightArm
RightHand	RightForeArm
LeftUpLeg	Hips
LeftLeg	LeftUpLeg
LeftFoot	LeftLeg
LeftToeBase	LeftFoot
RightUpLeg	Hips
RightLeg	RightUpLeg
RightFoot	RightLeg
RightToeBase	RightFoot
[BasePosition]
reference	0	0	0	0	0	0	1
Hips	0	0	0	0	0	0	1
Spine	0	0	0	0	-0	90	1
Spine1	0	0	0	0	0	0	1
Neck	0	0	0	-7.352327771	-7.352327771	90	1
Head	0	0	0	0	-0	90	1
LeftShoulder	0	0	0	0	0	0	1
LeftArm	0	0	0	0	0	0	1
LeftForeArm	0	0	0	0	0	0	1
LeftHand	0	0	0	0	0	0	1
RightShoulder	0	0	0	0	-0	180	1
RightArm	0	0	0	0	-0	180	1
RightForeArm	0	0	0	0	-0	180	1
RightHand	0	0	0	0	-0	180	1
LeftUpLeg	0	0	0	0	-0	-90	1
LeftLeg	0	0	0	0	-0	-90	1
LeftFoot	0	0	0	66.57146043	-66.57146043	-90	1
LeftToeBase	0	0	0	0	-90	0	1
RightUpLeg	0	0	0	0	-0	-90	1
RightLeg	0	0	0	0	-0	-90	1
RightFoot	0	0	0	66.57146043	-66.57146043	-90	1
RightToeBase	0	0	0	0	-90	0	1
[reference]
37	0	0	0	0	-0	0	1.0
38	0	0	0	0	-0	0	1.0
39	0	0	0	0	-0	0	1.0
40	0	0	0	0	-0	0	1.0
41	0	0	0	0	-0	0	1.0
[Hips]
37	3.440609932	8.585012436	1.135321617	1.500595093	-134.4881439	-0.5710449219	1.0
38	3.630124331	8.566244125	1.140743613	0.991961062	-132.4975586	-0.9530873299	1.0
39	3.849970818	8.405407906	1.146158218	0.3514206409	-130.481781	-0.8100919127	1.0
40	4.059576511	8.203000069	1.151566863	-0.58634758	-128.8983459	0.4331541061	1.0
41	4.21808815	8.067260742	1.156971335	-1.18489635	-128.2933044	1.376975775	1.0
[Spine]
37	0	0.7457100153	0	-7.106314182	1.964707017	-89.97280884	1.0
38	0	0.7457100153	0	-5.994040489	2.32559514	-89.92438507	1.0
39	0	0.7457100153	0	-4.799899578	2.393527269	-89.87767792	1.0
40	0	0.7457100153	0	-4.796367168	2.041920662	-89.46133423	1.0
41	0	0.7457100153	0	-5.343648434	1.329127908	-89.15869141	1.0
[Spine1]
37	0	2.140589952	0	2.971029997	0.5659043789	3.294748306	1.0
38	0	2.140589952	0	2.570509672	0.715765059	2.727640152	1.0
39	0	2.140589952	0	2.123694897	0.7542262077	2.70187211	1.0
40	0	2.140589952	0	3.193564415	0.5692874789	3.227870941	1.0
41	0	2.140589952	0	5.304584503	0.2670668662	3.479767799	1.0
[Neck]
37	0	2.32246995	0	-11.72387791	16.51192665	-91.48309326	1.0
38	0	2.32246995	0	-10.5629034	15.85082054	-91.93666077	1.0
39	0	2.32246995	0	-9.495786667	15.41810703	-92.31137848	1.0
40	0	2.32246995	0	-9.362857819	15.30346107	-92.92663574	1.0
41	0	2.32246995	0	-10.87128448	15.61313057	-93.32401276	1.0
[Head]
37	0	1.409579992	0.1818799973	-2.333178043	9.944408417	-93.28575897	1.0
38	0	1.409579992	0.1818799973	-2.270690918	9.259196281	-93.41439819	1.0
39	0	1.409579992	0.1818799973	-3.042654514	8.747792244	-93.38542175	1.0
40	0	1.409579992	0.1818799973	-4.60660696	8.573671341	-93.54438019	1.0
41	0	1.409579992	0.1818799973	-5.097875118	8.925186157	-93.44063568	1.0
[LeftShoulder]
37	0.3668199778	1.946700096	-0.02662999928	-17.0341835	-12.67775154	1.324044466	1.0
38	0.3668199778	1.946700096	-0.02662999928	-17.31710434	-12.84500599	0.9679954052	1.0
39	0.3668199778	1.946700096	-0.02662999928	-17.54514503	-12.83571148	0.6457318664	1.0
40	0.3668199778	1.946700096	-0.02662999928	-18.4479332	-12.55383301	0.8367880583	1.0
41	0.3668199778	1.946700096	-0.02662999928	-18.62117958	-11.98549557	1.64402914	1.0
[LeftArm]
37	1.140689969	0	0	39.85310745	-5.292582512	-62.05591202	1.0
38	1.140689969	0	0	40.45026016	-5.400857449	-61.64830399	1.0
39	1.140689969	0	0	40.3843689	-5.466341972	-61.57394791	1.0
40	1.140689969	0	0	39.88937378	-5.001554489	-62.33204651	1.0
41	1.140689969	0	0	38.72776794	-4.702951431	-63.46107483	1.0
[LeftForeArm]
37	2.749800205	0	0	58.40621185	-139.2686157	-22.51469421	1.0
38	2.749800205	0	0	58.22254181	-138.9532166	-22.49189758	1.0
39	2.749800205	0	0	57.33147049	-138.3637848	-22.44005966	1.0
40	2.749800205	0	0	57.75669861	-138.1608276	-22.93420792	1.0
41	2.749800205	0	0	58.01528549	-138.4863739	-22.8193531	1.0
[LeftHand]
37	2.295179844	0	0	-1.572178602	-19.79002953	20.28156281	1.0
38	2.295179844	0	0	-1.368445039	-19.9683609	20.44098854	1.0
39	2.295179844	0	0	-1.275578618	-19.71079254	19.94692421	1.0
40	2.295179844	0	0	-1.595803738	-19.83163643	19.49336243	1.0
41	2.295179844	0	0	-1.464700341	-20.36515045	18.79957199	1.0
[RightShoulder]
37	-0.3601199985	1.946700096	-0.02662999928	-7.704687595	3.723964453	175.2447357	1.0
38	-0.3601199985	1.946700096	-0.02662999928	-7.384989738	3.834248066	175.7527771	1.0
39	-0.3601199985	1.946700096	-0.02662999928	-7.235433578	3.735994577	175.8500061	1.0
40	-0.3601199985	1.946700096	-0.02662999928	-7.725578785	3.410055161	175.2294464	1.0
41	-0.3601199985	1.946700096	-0.02662999928	-8.195281029	3.57019639	174.7210083	1.0
[RightArm]
37	-1.140689969	0	0	56.74159241	5.137310028	-106.9729919	1.0
38	-1.140689969	0	0	57.21712875	5.181283951	-107.5061646	1.0
39	-1.140689969	0	0	56.98439789	5.18860054	-107.5452042	1.0
40	-1.140689969	0	0	55.67086792	5.74379921	-107.0672379	1.0
41	-1.140689969	0	0	55.47246552	6.450232983	-106.1579666	1.0
[RightForeArm]
37	-2.749800205	0	0	-105.2051773	45.88711548	32.98692322	1.0
38	-2.749800205	0	0	-104.3707886	45.18001556	33.21953583	1.0
39	-2.749800205	0	0	-103.5477142	44.52436066	33.35029221	1.0
40	-2.749800205	0	0	-105.127243	45.11173248	32.44757462	1.0
41	-2.749800205	0	0	-105.3613815	45.20385742	32.29021454	1.0
[RightHand]
37	-2.295179844	0	0	0.9636856318	17.58449364	155.2505035	1.0
38	-2.295179844	0	0	0.473439455	17.51722145	155.2361145	1.0
39	-2.295179844	0	0	0.1139083356	17.69552994	155.0257263	1.0
40	-2.295179844	0	0	0.891264081	17.50932121	154.7398834	1.0
41	-2.295179844	0	0	1.164489865	17.32428932	155.156189	1.0
[LeftUpLeg]
37	0.9094099998	0	0	-13.82125092	5.221280098	96.47260284	1.0
38	0.9094099998	0	0	-16.30308342	2.861362219	97.92202759	1.0
39	0.9094099998	0	0	-21.86487389	-0.5117759109	101.5899353	1.0
40	0.9094099998	0	0	-28.32967186	1.023917079	104.3731995	1.0
41	0.9094099998	0	0	-32.32601166	4.477294445	104.6172943	1.0
[LeftLeg]
37	0	-4.498080254	0	27.76270866	0.5206991434	83.86855316	1.0
38	0	-4.498080254	0	31.62096786	1.66125226	82.14405823	1.0
39	0	-4.498080254	0	40.14585876	1.412981272	74.74924469	1.0
40	0	-4.498080254	0	49.67179871	-2.406250715	64.9744873	1.0
41	0	-4.498080254	0	56.05133438	-5.15007019	60.20862579	1.0
[LeftFoot]
37	0	-3.729400158	0	-75.85374451	100.9092178	-32.36828613	1.0
38	0	-3.729400158	0	-67.21182251	101.2999115	-23.95432091	1.0
39	0	-3.729400158	0	-49.37164688	105.6383667	-3.792392731	1.0
40	0	-3.729400158	0	-36.79175949	112.0610657	10.89146709	1.0
41	0	-3.729400158	0	-31.11090088	115.1160126	17.61686707	1.0
[LeftToeBase]
37	0	-0.5911099911	1.364109993	0	0	0	1.0
38	0	-0.5911099911	1.364109993	0	0	0	1.0
39	0	-0.5911099911	1.364109993	0	0	0	1.0
40	0	-0.5911099911	1.364109993	0	0	0	1.0
41	0	-0.5911099911	1.364109993	0	0	0	1.0
[RightUpLeg]
37	-0.9094099998	0	0	1.671763897	-12.70611191	83.64348602	1.0
38	-0.9094099998	0	0	4.271989346	-14.66305161	83.11651611	1.0
39	-0.9094099998	0	0	5.81246376	-15.68475819	83.52627563	1.0
40	-0.9094099998	0	0	5.329401016	-16.00280571	85.75935364	1.0
41	-0.9094099998	0	0	4.032445431	-15.86394691	88.1964035	1.0
[RightLeg]
37	0	-4.498080254	0	35.52691269	1.823767424	82.58550262	1.0
38	0	-4.498080254	0	31.82123184	0.6677697301	82.76545715	1.0
39	0	-4.498080254	0	31.28934669	0.951320827	83.94778442	1.0
40	0	-4.498080254	0	32.29188538	0.3310684264	84.47621155	1.0
41	0	-4.498080254	0	33.79541779	-0.9324874282	83.47808075	1.0
[RightFoot]
37	0	-3.729400158	0	60.26815414	53.51672363	99.01930237	1.0
38	0	-3.729400158	0	64.93157196	50.27975082	105.1560364	1.0
39	0	-3.729400158	0	59.26308823	50.18521118	108.1993408	1.0
40	0	-3.729400158	0	47.63061523	50.22003555	106.480751	1.0
41	0	-3.729400158	0	38.57624435	51.88785172	103.3956604	1.0
[RightToeBase]
37	0	-0.5911099911	1.364109993	0	0	0	1.0
38	0	-0.5911099911	1.364109993	0	0	0	1.0
39	0	-0.5911099911	1.364109993	0	0	0	1.0
40	0	-0.5911099911	1.364109993	0	0	0	1.0
41	0	-0.5911099911	1.364109993	0	0	0	1.0
[EndOfFile]
